<?xml version="1.0" standalone="no"?>
<!DOCTYPE svg PUBLIC "-//W3C//DTD SVG 20010904//EN"
 "http://www.w3.org/TR/2001/REC-SVG-20010904/DTD/svg10.dtd">
<svg version="1.0" xmlns="http://www.w3.org/2000/svg"
 width="1177.000000pt" height="1177.000000pt" viewBox="0 0 1177.000000 1177.000000"
 preserveAspectRatio="xMidYMid meet">
<metadata>
Created by potrace 1.11, written by Peter Selinger 2001-2013
</metadata>
<g transform="translate(0.000000,1177.000000) scale(0.100000,-0.100000)"
fill="#000000" stroke="none">
<path d="M5579 11766 c-2 -2 -56 -6 -119 -10 -63 -4 -128 -9 -145 -11 -16 -2
-55 -6 -85 -10 -101 -10 -334 -46 -440 -66 -58 -11 -116 -23 -130 -25 -44 -9
-234 -53 -270 -64 -321 -90 -614 -191 -805 -276 -22 -10 -42 -18 -45 -19 -56
-11 -555 -269 -725 -376 -190 -119 -515 -346 -558 -390 -10 -11 -21 -19 -25
-19 -4 0 -18 -10 -32 -23 -14 -12 -52 -45 -85 -72 -181 -150 -485 -443 -622
-600 -363 -416 -629 -806 -860 -1260 -147 -290 -297 -662 -378 -940 -10 -33
-23 -78 -30 -100 -25 -79 -97 -370 -111 -450 -3 -22 -8 -49 -11 -60 -2 -11 -6
-35 -9 -54 -3 -18 -8 -43 -10 -55 -12 -64 -24 -136 -28 -171 -31 -258 -33
-276 -43 -405 -15 -190 -7 -877 11 -976 2 -10 7 -55 11 -99 8 -95 12 -127 19
-163 3 -15 8 -47 11 -72 18 -137 51 -302 109 -550 62 -260 192 -642 319 -931
110 -250 285 -581 405 -764 26 -38 52 -80 58 -92 47 -85 356 -496 467 -621 18
-19 54 -60 82 -91 59 -67 393 -401 450 -451 157 -137 223 -192 360 -298 240
-185 577 -398 878 -555 392 -204 978 -420 1337 -493 14 -3 41 -9 60 -14 42
-11 231 -49 280 -56 19 -3 49 -8 65 -11 17 -4 37 -7 45 -8 24 -2 133 -17 155
-21 11 -2 49 -7 85 -9 36 -3 74 -8 85 -10 68 -13 267 -20 595 -19 336 0 456 4
570 19 19 2 62 7 95 10 62 7 241 32 285 40 13 3 42 7 65 10 22 4 56 10 75 15
19 5 49 11 65 13 116 19 404 93 620 161 616 192 1232 512 1770 920 66 50 122
93 125 96 3 3 46 39 95 80 91 75 113 94 239 211 115 106 334 333 411 424 22
26 45 53 52 60 42 44 247 305 306 390 34 49 197 293 214 320 12 20 100 166
118 196 97 164 283 553 365 764 78 198 211 621 235 743 1 9 8 35 14 57 9 36
38 170 47 220 2 11 6 34 9 50 16 92 35 205 39 240 22 181 36 304 43 380 10
114 10 815 0 915 -4 41 -10 102 -13 135 -3 33 -7 71 -9 85 -2 14 -7 48 -10 75
-3 28 -7 61 -10 75 -2 14 -7 47 -10 73 -3 26 -10 71 -16 100 -5 29 -12 68 -15
87 -5 32 -47 225 -79 360 -7 30 -24 93 -38 140 -13 47 -26 91 -28 99 -2 7 -30
90 -61 185 -32 94 -60 178 -62 186 -2 8 -16 44 -31 80 -15 36 -31 74 -35 85
-68 173 -214 477 -304 633 -20 35 -36 65 -36 67 0 8 -138 229 -215 345 -113
169 -359 497 -415 550 -3 3 -34 39 -69 80 -151 175 -509 519 -707 677 -95 76
-162 129 -185 146 -399 289 -780 512 -1154 672 -60 25 -129 55 -152 66 -24 10
-49 19 -56 19 -7 0 -17 4 -23 9 -14 12 -356 133 -444 156 -8 2 -49 14 -90 25
-108 30 -338 85 -455 109 -118 24 -144 28 -265 46 -25 4 -56 8 -70 10 -14 2
-47 7 -75 10 -27 3 -66 8 -85 10 -19 3 -66 7 -105 11 -38 3 -86 8 -105 10 -40
6 -746 14 -751 10z"/>
</g>
</svg>
