<?xml version="1.0" standalone="no"?>
<!DOCTYPE svg PUBLIC "-//W3C//DTD SVG 20010904//EN"
 "http://www.w3.org/TR/2001/REC-SVG-20010904/DTD/svg10.dtd">
<svg version="1.0" xmlns="http://www.w3.org/2000/svg"
 width="512.000000pt" height="512.000000pt" viewBox="0 0 512.000000 512.000000"
 preserveAspectRatio="xMidYMid meet">
<metadata>
Created by potrace 1.11, written by Peter Selinger 2001-2013
</metadata>
<g transform="translate(0.000000,512.000000) scale(0.100000,-0.100000)"
fill="#000000" stroke="none">
<path d="M2430 4698 c-541 -32 -1035 -260 -1413 -652 -303 -312 -499 -703
-571 -1131 -63 -378 -21 -788 115 -1132 301 -761 998 -1285 1804 -1358 134
-12 422 -6 485 10 8 2 35 7 60 10 66 9 234 50 320 78 594 196 1086 656 1318
1234 147 367 190 765 126 1158 -125 761 -657 1397 -1392 1665 -156 57 -383
105 -543 115 -149 10 -192 10 -309 3z"/>
</g>
</svg>
