<?xml version="1.0" standalone="no"?>
<!DOCTYPE svg PUBLIC "-//W3C//DTD SVG 20010904//EN"
 "http://www.w3.org/TR/2001/REC-SVG-20010904/DTD/svg10.dtd">
<svg version="1.0" xmlns="http://www.w3.org/2000/svg"
 width="512.000000pt" height="512.000000pt" viewBox="0 0 512.000000 512.000000"
 preserveAspectRatio="xMidYMid meet">
<metadata>
Created by potrace 1.11, written by Peter Selinger 2001-2013
</metadata>
<g transform="translate(0.000000,512.000000) scale(0.100000,-0.100000)"
fill="#000000" stroke="none">
<path d="M4178 4586 c-20 -7 -59 -27 -85 -44 -26 -18 -356 -345 -733 -728
-377 -383 -741 -746 -809 -807 l-124 -111 44 -12 c24 -6 58 -18 74 -26 41 -22
171 -138 213 -190 35 -44 92 -153 92 -176 0 -14 233 -417 254 -440 9 -9 19 -1
46 38 216 310 296 410 613 767 288 325 295 333 506 598 287 359 364 481 365
575 0 53 -4 63 -139 289 -77 129 -152 243 -166 254 -34 25 -104 31 -151 13z"/>
<path d="M1797 2421 l-107 -48 42 -13 c66 -19 126 -53 218 -121 219 -161 378
-360 411 -514 10 -45 43 -111 137 -270 68 -115 125 -212 128 -214 2 -3 11 4
19 15 19 23 90 160 99 191 6 17 -20 69 -115 230 -230 392 -315 504 -483 639
-101 81 -210 154 -228 153 -7 0 -61 -22 -121 -48z"/>
<path d="M1392 2130 c-158 -42 -315 -159 -390 -291 -47 -83 -96 -241 -142
-462 -44 -210 -61 -263 -105 -315 -43 -52 -77 -64 -164 -62 -96 3 -101 3 -101
-13 0 -7 65 -123 144 -257 163 -278 178 -295 326 -354 190 -75 405 -104 578
-76 335 53 628 262 772 550 49 99 68 158 80 254 l10 80 -131 223 c-72 123
-135 223 -139 223 -4 0 -32 30 -62 68 -91 112 -208 225 -308 299 -52 39 -113
89 -135 112 -37 39 -41 41 -100 40 -33 0 -93 -9 -133 -19z"/>
</g>
</svg>
